<svg width="16" height="17" viewBox="0 0 16 17" fill="none" xmlns="http://www.w3.org/2000/svg">
<path d="M10.5892 16.653C11.3236 16.6303 12.0202 16.3217 12.5303 15.7928C13.0405 15.264 13.3239 14.5568 13.3202 13.822L13.6322 3.461H15.0952C15.2003 3.4521 15.2983 3.40405 15.3697 3.32636C15.4411 3.24867 15.4807 3.14701 15.4807 3.0415C15.4807 2.93599 15.4411 2.83433 15.3697 2.75664C15.2983 2.67895 15.2003 2.6309 15.0952 2.622H10.9952V1.678C11.009 1.24944 10.8531 0.832753 10.5613 0.518532C10.2696 0.20431 9.86559 0.0179617 9.43718 0H6.47218C6.04325 0.017192 5.63849 0.203206 5.3461 0.517512C5.05371 0.831818 4.89738 1.24894 4.91118 1.678V2.622H0.794184C0.68905 2.6309 0.591091 2.67895 0.5197 2.75664C0.448309 2.83433 0.408691 2.93599 0.408691 3.0415C0.408691 3.14701 0.448309 3.24867 0.5197 3.32636C0.591091 3.40405 0.68905 3.4521 0.794184 3.461H2.25718L2.56918 13.822C2.56547 14.5575 2.84944 15.2652 3.36045 15.7942C3.87147 16.3231 4.56903 16.6313 5.30418 16.653H10.5892ZM5.68918 1.678C5.68241 1.46359 5.76055 1.25517 5.90661 1.09806C6.05267 0.940955 6.25485 0.847853 6.46918 0.839H9.43518C9.64952 0.847853 9.85169 0.940955 9.99775 1.09806C10.1438 1.25517 10.222 1.46359 10.2152 1.678V2.622H5.69118L5.68918 1.678ZM3.36718 13.778L3.05518 3.438H12.8692L12.5372 13.778C12.5386 14.3037 12.3361 14.8094 11.9722 15.1888C11.6083 15.5681 11.1115 15.7915 10.5862 15.812H5.32118C4.79507 15.795 4.29646 15.573 3.9319 15.1933C3.56733 14.8136 3.36573 14.3064 3.37018 13.78L3.36718 13.778Z" fill="#FA4242"/>
</svg>
