<svg width="18" height="17" viewBox="0 0 18 17" fill="none" xmlns="http://www.w3.org/2000/svg">
<path d="M16.1842 0.748037C15.9471 0.510592 15.6655 0.322222 15.3555 0.193699C15.0456 0.0651766 14.7133 -0.000976563 14.3777 -0.000976562C14.0422 -0.000976563 13.7099 0.0651766 13.3999 0.193699C13.09 0.322222 12.8084 0.510592 12.5712 0.748037L2.44424 10.876C2.37435 10.945 2.32397 11.0313 2.29824 11.126L0.967239 15.934C0.939761 16.0311 0.938678 16.1337 0.964102 16.2314C0.989527 16.329 1.04054 16.4181 1.11187 16.4894C1.18321 16.5607 1.27228 16.6117 1.36991 16.6372C1.46753 16.6626 1.57017 16.6615 1.66724 16.634L6.47524 15.303C6.57 15.2773 6.65626 15.2269 6.72524 15.157L16.8512 5.02704C17.3293 4.54738 17.5978 3.89776 17.5978 3.22054C17.5978 2.54331 17.3293 1.8937 16.8512 1.41404L16.1842 0.748037ZM3.68424 11.248L11.9722 2.95904L14.6422 5.62804L6.35524 13.917L3.68424 11.248ZM3.15124 12.319L5.28424 14.45L2.33124 15.268L3.15124 12.319ZM16.0512 4.22704L15.4512 4.82704L12.7732 2.15304L13.3732 1.55304C13.6393 1.28716 14.0001 1.13781 14.3762 1.13781C14.7524 1.13781 15.1132 1.28716 15.3792 1.55304L16.0452 2.21904C16.3105 2.48507 16.4597 2.84525 16.4602 3.22092C16.4608 3.59659 16.3127 3.95721 16.0482 4.22404L16.0512 4.22704Z" fill="#10AAC0"/>
</svg>
